<svg xmlns="http://www.w3.org/2000/svg" xmlns:xlink="http://www.w3.org/1999/xlink" width="586" height="285" version="1.1" viewBox="0 0 586 285"><title>Class Loader</title><desc>Created with Sketch.</desc><defs><rect id="path-1" width="848" height="960" x="0" y="305" rx="2"/><filter id="filter-2" width="102%" height="101.8%" x="-.9%" y="-.7%" filterUnits="objectBoundingBox"><feOffset dx="1" dy="2" in="SourceAlpha" result="shadowOffsetOuter1"/><feGaussianBlur in="shadowOffsetOuter1" result="shadowBlurOuter1" stdDeviation="2.5"/><feColorMatrix in="shadowBlurOuter1" type="matrix" values="0 0 0 0 0 0 0 0 0 0 0 0 0 0 0 0 0 0 0.5 0"/></filter><rect id="path-3" width="672" height="896" x="0" y="28" rx="2"/><filter id="filter-4" width="102.5%" height="101.9%" x="-1.1%" y="-.7%" filterUnits="objectBoundingBox"><feOffset dx="1" dy="2" in="SourceAlpha" result="shadowOffsetOuter1"/><feGaussianBlur in="shadowOffsetOuter1" result="shadowBlurOuter1" stdDeviation="2.5"/><feColorMatrix in="shadowBlurOuter1" type="matrix" values="0 0 0 0 0 0 0 0 0 0 0 0 0 0 0 0 0 0 0.5 0"/></filter><rect id="path-5" width="576" height="256" x="0" y="25" rx="2"/><filter id="filter-6" width="103%" height="106.6%" x="-1.3%" y="-2.5%" filterUnits="objectBoundingBox"><feOffset dx="1" dy="2" in="SourceAlpha" result="shadowOffsetOuter1"/><feGaussianBlur in="shadowOffsetOuter1" result="shadowBlurOuter1" stdDeviation="2.5"/><feColorMatrix in="shadowBlurOuter1" type="matrix" values="0 0 0 0 0 0 0 0 0 0 0 0 0 0 0 0 0 0 0.5 0"/></filter><rect id="path-7" width="207" height="224" x="0" y="0" rx="2"/><filter id="filter-8" width="108.2%" height="107.6%" x="-3.6%" y="-2.9%" filterUnits="objectBoundingBox"><feOffset dx="1" dy="2" in="SourceAlpha" result="shadowOffsetOuter1"/><feGaussianBlur in="shadowOffsetOuter1" result="shadowBlurOuter1" stdDeviation="2.5"/><feColorMatrix in="shadowBlurOuter1" type="matrix" values="0 0 0 0 0 0 0 0 0 0 0 0 0 0 0 0 0 0 0.5 0"/></filter><rect id="path-9" width="96" height="224" x="0" y="0" rx="2"/><filter id="filter-10" width="117.7%" height="107.6%" x="-7.8%" y="-2.9%" filterUnits="objectBoundingBox"><feOffset dx="1" dy="2" in="SourceAlpha" result="shadowOffsetOuter1"/><feGaussianBlur in="shadowOffsetOuter1" result="shadowBlurOuter1" stdDeviation="2.5"/><feColorMatrix in="shadowBlurOuter1" type="matrix" values="0 0 0 0 0 0 0 0 0 0 0 0 0 0 0 0 0 0 0.5 0"/></filter><rect id="path-11" width="96" height="224" x="0" y="0" rx="2"/><filter id="filter-12" width="117.7%" height="107.6%" x="-7.8%" y="-2.9%" filterUnits="objectBoundingBox"><feOffset dx="1" dy="2" in="SourceAlpha" result="shadowOffsetOuter1"/><feGaussianBlur in="shadowOffsetOuter1" result="shadowBlurOuter1" stdDeviation="2.5"/><feColorMatrix in="shadowBlurOuter1" type="matrix" values="0 0 0 0 0 0 0 0 0 0 0 0 0 0 0 0 0 0 0.5 0"/></filter></defs><g id="Page-1" fill="none" fill-rule="evenodd" stroke="none" stroke-width="1"><g id="JVM-Architecture" transform="translate(-188.000000, -347.000000)"><g id="Rectangle"><use fill="#000" fill-opacity="1" filter="url(#filter-2)" xlink:href="#path-1"/><use fill="#FF9234" fill-rule="evenodd" xlink:href="#path-1"/></g><g id="JVM" transform="translate(144.000000, 309.000000)"><g id="Rectangle"><use fill="#000" fill-opacity="1" filter="url(#filter-4)" xlink:href="#path-3"/><use fill="#FFCD3C" fill-rule="evenodd" xlink:href="#path-3"/></g><g id="Class-Loader" transform="translate(48.000000, 35.000000)"><text id="Class-Loader-Subsyst" fill="#000" font-family="PingFangSC-Regular, PingFang SC" font-size="12" font-weight="normal"><tspan x="2.084" y="13">Class Loader Subsystem</tspan></text><g id="Rectangle"><use fill="#000" fill-opacity="1" filter="url(#filter-6)" xlink:href="#path-5"/><use fill="#FEFED5" fill-rule="evenodd" xlink:href="#path-5"/></g><g id="Loading" transform="translate(33.000000, 41.000000)"><g id="Rectangle"><use fill="#000" fill-opacity="1" filter="url(#filter-8)" xlink:href="#path-7"/><use fill="#35D0BA" fill-rule="evenodd" xlink:href="#path-7"/></g><path id="Line-2" fill="#8A9199" fill-rule="nonzero" d="M105,55 L105,84 L111,84 L104,98 L97,84 L103,84 L103,55 L105,55 Z"/><path id="Line-3" fill="#8A9199" fill-rule="nonzero" d="M105,123 L105,152 L111,152 L104,166 L97,152 L103,152 L103,123 L105,123 Z"/><rect id="Rectangle" width="176" height="24" x="16" y="32" fill="#FDD365" stroke="#979797" rx="2"/><rect id="Rectangle" width="175" height="26" x="16" y="98" fill="#FDD365" stroke="#979797" rx="2"/><text id="Extension-ClassLoade" fill="#000" font-family="PingFangSC-Regular, PingFang SC" font-size="12" font-weight="normal"><tspan x="41.25" y="116">Extension ClassLoader</tspan></text><rect id="Rectangle" width="174" height="26" x="17" y="166" fill="#FDD365" stroke="#979797" rx="2"/><text id="Application-ClassLoa" fill="#000" font-family="PingFangSC-Regular, PingFang SC" font-size="12" font-weight="normal"><tspan x="36.284" y="184">Application ClassLoader</tspan></text><text id="Bootstrap-ClassLoade" fill="#000" font-family="PingFangSC-Regular, PingFang SC" font-size="12" font-weight="normal"><tspan x="39.932" y="42">Bootstrap ClassLoader</tspan></text><text fill="#000" font-family="PingFangSC-Regular, PingFang SC" font-size="14" font-weight="normal"><tspan x="77.425" y="21">Loading</tspan></text></g><g id="Linking" transform="translate(288.000000, 41.000000)"><g id="Rectangle"><use fill="#000" fill-opacity="1" filter="url(#filter-10)" xlink:href="#path-9"/><use fill="#35D0BA" fill-rule="evenodd" xlink:href="#path-9"/></g><path id="Line-2" fill="#8A9199" fill-rule="nonzero" d="M49.5,55 L49.5,84 L55.5,84 L48.5,98 L41.5,84 L47.5,84 L47.5,55 L49.5,55 Z"/><path id="Line-3" fill="#8A9199" fill-rule="nonzero" d="M49.5,123 L49.5,152 L55.5,152 L48.5,166 L41.5,152 L47.5,152 L47.5,123 L49.5,123 Z"/><rect id="Rectangle" width="82" height="24" x="7" y="32" fill="#FDD365" stroke="#979797" rx="2"/><rect id="Rectangle" width="81" height="26" x="8" y="98" fill="#FDD365" stroke="#979797" rx="2"/><text id="Prepare" fill="#000" font-family="PingFangSC-Regular, PingFang SC" font-size="12" font-weight="normal"><tspan x="26.738" y="116">Prepare</tspan></text><rect id="Rectangle" width="81" height="26" x="8" y="166" fill="#FDD365" stroke="#979797" rx="2"/><text id="Resolve" fill="#000" font-family="PingFangSC-Regular, PingFang SC" font-size="12" font-weight="normal"><tspan x="26.936" y="184">Resolve</tspan></text><text id="Verify" fill="#000" font-family="PingFangSC-Regular, PingFang SC" font-size="12" font-weight="normal"><tspan x="32.896" y="42">Verify</tspan></text><text fill="#000" font-family="PingFangSC-Regular, PingFang SC" font-size="14" font-weight="normal"><tspan x="25.134" y="21">Linking</tspan></text></g><g id="Initialinzation" transform="translate(432.000000, 41.000000)"><g id="Rectangle"><use fill="#000" fill-opacity="1" filter="url(#filter-12)" xlink:href="#path-11"/><use fill="#35D0BA" fill-rule="evenodd" xlink:href="#path-11"/></g><rect id="Rectangle" width="81" height="26" x="8" y="86" fill="#FDD365" stroke="#979797" rx="2"/><text id="Init" fill="#000" font-family="PingFangSC-Regular, PingFang SC" font-size="12" font-weight="normal"><tspan x="40.058" y="104">Init</tspan></text><text id="Initialization" fill="#000" font-family="PingFangSC-Regular, PingFang SC" font-size="14" font-weight="normal"><tspan x="10.895" y="21">Initialization</tspan></text></g><path id="Line-4" fill="#8A9199" fill-rule="nonzero" d="M272.977778,146 L286.977778,153 L272.977778,160 L272.977,154 L241,154 L241,152 L272.977,152 L272.977778,146 Z"/><path id="Line-5" fill="#8A9199" fill-rule="nonzero" d="M418,146 L432,153 L418,160 L417.999,153.999 L391,154 L391,152 L417.999,151.999 L418,146 Z"/></g><path id="Line-10" fill="#8A9199" fill-rule="nonzero" d="M328.5,316.5 L335.5,330.5 L329.5,330.5 L329.5,376.5 L335.5,376.5 L328.5,390.5 L321.5,376.5 L327.5,376.5 L327.5,330.5 L321.5,330.5 L328.5,316.5 Z"/></g></g></g></svg>